<?xml version="1.0" encoding="UTF-8" standalone="no"?>
<svg
   version="1.1"
   width="512"
   height="512"
   id="svg4"
   sodipodi:docname="notification_themeColor.svg"
   inkscape:version="1.4.2 (f4327f4, 2025-05-13)"
   xmlns:inkscape="http://www.inkscape.org/namespaces/inkscape"
   xmlns:sodipodi="http://sodipodi.sourceforge.net/DTD/sodipodi-0.dtd"
   xmlns="http://www.w3.org/2000/svg"
   xmlns:svg="http://www.w3.org/2000/svg">
  <defs
     id="defs4" />
  <sodipodi:namedview
     id="namedview4"
     pagecolor="#ffffff"
     bordercolor="#000000"
     borderopacity="0.25"
     inkscape:showpageshadow="2"
     inkscape:pageopacity="0.0"
     inkscape:pagecheckerboard="0"
     inkscape:deskcolor="#d1d1d1"
     inkscape:zoom="1.8222656"
     inkscape:cx="185.75777"
     inkscape:cy="285.08467"
     inkscape:window-width="1920"
     inkscape:window-height="1177"
     inkscape:window-x="-8"
     inkscape:window-y="34"
     inkscape:window-maximized="1"
     inkscape:current-layer="svg4" />
  <path
     d="M0 0 C10.4207789 6.64719381 17.73619893 15.85982648 21.55517578 27.72485352 C22.17181765 30.8787973 22.22426805 33.96020076 22.31640625 37.171875 C22.33718735 37.8542926 22.35796844 38.53671021 22.37937927 39.23980713 C22.44452052 41.40977356 22.50359404 43.57985624 22.5625 45.75 C22.60571897 47.22527221 22.64933432 48.70053287 22.69335938 50.17578125 C22.80016518 53.78373166 22.90153153 57.39181133 23 61 C24.00675781 61.31710938 25.01351563 61.63421875 26.05078125 61.9609375 C47.95832497 69.12367841 66.99453757 80.57058591 83.52783203 96.57910156 C85.0138435 98.01336139 86.51960083 99.42457776 88.02734375 100.8359375 C109.86785274 121.59565009 123.87148635 149.6754227 130 179 C130.27710815 180.28293945 130.27710815 180.28293945 130.55981445 181.59179688 C132.72329088 193.26813471 132.42502081 205.16654319 132.5625 217 C132.70499874 247.28262908 132.70499874 247.28262908 135.6875 277.375 C135.86047607 278.50292969 136.03345215 279.63085938 136.21166992 280.79296875 C141.57027032 313.99253735 153.99637136 346.19299411 173 374 C173.39896484 374.59280762 173.79792969 375.18561523 174.20898438 375.79638672 C180.08531749 384.48550569 186.62314939 392.47082855 193.54492188 400.34326172 C195.1341618 402.15275537 196.71929279 403.9654838 198.296875 405.78515625 C198.79026367 406.35242432 199.28365234 406.91969238 199.79199219 407.50415039 C202.84731526 411.28749001 202.32606804 415.33383581 202.28125 420.01171875 C201.9054694 424.00438764 200.74835565 426.10308459 198 429 C193.85090921 432.09184775 190.7766564 432.37628431 185.65481663 432.38031673 C184.92146755 432.38497665 184.18811848 432.38963657 183.43254671 432.3944377 C180.96775388 432.40641736 178.50350927 432.39698104 176.03871155 432.38768005 C174.25675525 432.39185167 172.47480161 432.39732824 170.69285291 432.40399987 C165.79020075 432.41849571 160.88771611 432.41419685 155.98505461 432.40683305 C150.70002691 432.40211391 145.41503612 432.41460009 140.13002014 432.42485046 C129.77403145 432.44206834 119.41810335 432.4428723 109.06210405 432.43763756 C100.64693576 432.43360026 92.2317854 432.43503418 83.81661797 432.44038582 C82.02179856 432.44150845 82.02179856 432.44150845 80.19072018 432.44265376 C77.76013823 432.4441852 75.32955629 432.44572355 72.89897435 432.44726873 C50.09278153 432.46100453 27.28662299 432.45554845 4.48043095 432.44408352 C-16.3956458 432.43414952 -37.27163394 432.44709281 -58.14769702 432.47101771 C-79.57066862 432.49538489 -100.9935989 432.50502248 -122.41658407 432.49836498 C-134.44901802 432.49486753 -146.4813838 432.49713952 -158.5138073 432.51461601 C-168.75654688 432.52930821 -178.99917029 432.53001252 -189.24190753 432.5125451 C-194.4699713 432.50400821 -199.69782727 432.50195099 -204.92588043 432.51719666 C-209.70947476 432.53097378 -214.49268189 432.52637092 -219.27625341 432.50695742 C-221.00903792 432.50317558 -222.74185294 432.50618177 -224.47461044 432.51656907 C-226.82653522 432.52966823 -229.17710956 432.51822032 -231.52897549 432.50057125 C-233.48996265 432.50041025 -233.48996265 432.50041025 -235.49056572 432.50024599 C-239.61931408 431.91172099 -241.76703749 430.58569029 -245 428 C-248.49501196 423.46613098 -248.63477656 419.55817122 -248.46484375 413.984375 C-247.70310892 409.09390939 -245.36249216 406.49001182 -242 403 C-234.30055583 394.72276159 -227.45362806 386.27556595 -221 377 C-219.87464844 375.38544922 -219.87464844 375.38544922 -218.7265625 373.73828125 C-195.10568413 338.39223763 -181.47537208 297.03151679 -179.47265625 254.60546875 C-179.42986542 253.70354797 -179.38707458 252.8016272 -179.34298706 251.87237549 C-179.02743092 244.71260992 -178.87953773 237.5564333 -178.7890625 230.390625 C-178.77471664 229.31654892 -178.76037079 228.24247284 -178.74559021 227.135849 C-178.68855672 222.73008851 -178.63350368 218.32445571 -178.59863281 213.91845703 C-178.24967589 173.00024927 -166.24262152 135.61090951 -138.04296875 105.25390625 C-136.6244739 103.68895113 -135.26401964 102.07019275 -133.953125 100.4140625 C-131.01716386 96.78521453 -127.59450735 93.96086022 -124 91 C-123.071875 90.23429687 -122.14375 89.46859375 -121.1875 88.6796875 C-105.48726489 76.15875 -88.08774914 67.14120451 -69 61 C-68.99589111 60.12899658 -68.99178223 59.25799316 -68.98754883 58.3605957 C-68.96023641 55.06278514 -68.9108134 51.76672477 -68.84741211 48.46948242 C-68.82451591 47.05488166 -68.80990454 45.6401173 -68.80444336 44.2253418 C-68.7346241 29.09604481 -64.93306332 17.44037309 -54.41796875 6.328125 C-40.15140689 -7.14006478 -16.97261538 -9.51713037 0 0 Z M-34 30 C-39.64213199 37.58769475 -38 45.539451 -38 55 C-28.1 55 -18.2 55 -8 55 C-7.08475753 41.57668748 -7.08475753 41.57668748 -12.4375 30.1875 C-17.05092383 26.24921137 -19.59018413 25.5545412 -25.4921875 25.68359375 C-29.19221913 26.15042017 -31.25813697 27.5256358 -34 30 Z "
     fill="#000000"
     transform="translate(279,5)"
     id="path1"
     style="fill:#ff7512;fill-opacity:1" />
  <path
     d="M0 0 C6.22648141 3.48343112 10.66198421 9.35713113 15.1875 14.75 C15.68330566 15.3378125 16.17911133 15.925625 16.68994141 16.53125 C43.2041111 48.20830115 59.9164321 85.14108577 67.1875 125.75 C67.414375 127.00296875 67.64125 128.2559375 67.875 129.546875 C69.20478805 138.30131303 69.44742936 147.03099965 69.5625 155.875 C69.58860352 157.04998047 69.61470703 158.22496094 69.64160156 159.43554688 C69.66312167 170.09107641 69.66312167 170.09107641 65.1875 174.75 C60.61345776 178.30258125 56.68363509 178.25327392 51.0703125 178.1015625 C47.1664351 177.62547989 45.03019609 176.4469168 42.1875 173.75 C38.31133854 168.67089188 38.12137303 163.0885476 37.828125 156.8828125 C35.29022732 110.06634186 19.56631604 66.88860278 -12.6875 32.375 C-22.94153306 21.35079503 -22.94153306 21.35079503 -23.4375 14.25 C-23.12351926 9.20886484 -21.14114882 5.49143641 -17.8125 1.75 C-12.29809521 -2.17135452 -6.17834481 -2.48902644 0 0 Z "
     fill="#000000"
     transform="translate(411.8125,52.25)"
     id="path2"
     style="fill:#ff7512;fill-opacity:1" />
  <path
     d="M0 0 C4.14812733 2.30362023 6.37627159 4.90579793 7.8125 9.4375 C8.73455842 14.32001888 8.31215733 18.17855851 5.8125 22.5 C3.28768656 26.10385383 0.26678797 29.02175803 -2.890625 32.06640625 C-21.72788724 51.51235553 -34.42920197 76.09317506 -43.1875 101.4375 C-43.56648438 102.52732178 -43.56648438 102.52732178 -43.953125 103.63916016 C-49.64626815 120.382536 -52.50904221 138.18255317 -52.86035156 155.84301758 C-53.01108193 162.24700264 -53.3354127 168.25298677 -57.625 173.3125 C-62.73512778 177.55016694 -65.74424991 177.87148098 -72.234375 177.75390625 C-76.1925156 177.32981976 -78.31061819 176.16684941 -81.1875 173.4375 C-83.72197844 169.84422862 -84.57530627 167.37491947 -84.62109375 162.9921875 C-84.63253418 161.92895264 -84.64397461 160.86571777 -84.65576172 159.77026367 C-84.64561035 158.62920166 -84.63545898 157.48813965 -84.625 156.3125 C-84.61742676 155.12052002 -84.60985352 153.92854004 -84.60205078 152.70043945 C-83.65565231 100.0717042 -61.76685041 48.12093161 -25.625 10.05078125 C-23.84597668 8.14346297 -22.21279307 6.25026037 -20.5859375 4.22265625 C-15.10508129 -2.14192108 -7.54301667 -3.24070346 0 0 Z "
     fill="#000000"
     transform="translate(115.1875,52.5625)"
     id="path3"
     style="fill:#ff7512;fill-opacity:1" />
  <path
     d="M0 0 C45.54 0 91.08 0 138 0 C132.76244096 15.71267711 120.47385267 28.15203816 106.30078125 36.31640625 C94.13688898 42.52071107 82.77265813 45.38640223 69.1875 45.3125 C68.12305664 45.30758545 67.05861328 45.3026709 65.96191406 45.29760742 C58.5982051 45.18752438 51.94137885 44.61483107 45 42 C44.01386719 41.64808594 43.02773437 41.29617188 42.01171875 40.93359375 C23.97390058 33.98891915 9.66477828 21.30521729 1 4 C0.67 2.68 0.34 1.36 0 0 Z "
     fill="#000000"
     transform="translate(187,467)"
     id="path4"
     style="fill:#ff7512;fill-opacity:1" />
</svg>
