<?xml version="1.0" encoding="UTF-8"?>
<svg version="1.1" xmlns="http://www.w3.org/2000/svg" width="512" height="512">
    <path
        d="M0 0 C5.28730199 4.69635907 10.37438827 9.57564346 15.37060547 14.58007812 C15.95841797 15.12148437 16.54623047 15.66289063 17.15185547 16.22070312 C50.96095214 47.87831182 70.78108846 98.15582151 73.49664307 143.69363403 C73.71648865 148.61395675 73.75927076 153.5304656 73.74560547 158.45507812 C73.74478973 159.57961395 73.74478973 159.57961395 73.74395752 160.72686768 C73.67149738 182.69156469 70.34078495 203.73149684 63.37060547 224.58007812 C63.01893311 225.6394458 63.01893311 225.6394458 62.66015625 226.72021484 C59.88880503 234.90518653 56.47307261 242.75834456 52.80810547 250.58007812 C52.44418701 251.35754395 52.08026855 252.13500977 51.70532227 252.93603516 C49.51229885 257.50700614 47.09839264 261.65133165 44.11303711 265.75585938 C43.13693024 267.56898804 43.13693024 267.56898804 44.03171158 269.38825035 C45.72343239 272.15767121 47.7445959 274.18652232 50.05047607 276.47354126 C50.52981071 276.95176248 51.00914534 277.4299837 51.50300527 277.92269647 C53.10880562 279.5224297 54.72162936 281.1148896 56.33447266 282.70751953 C57.4880373 283.85397054 58.64113246 285.00089411 59.79379272 286.14825439 C62.27706354 288.61842408 64.76330735 291.08554859 67.25179291 293.55046463 C71.19170623 297.45376267 75.12289218 301.3657706 79.05255127 305.27938843 C90.22859834 316.40716106 101.41623727 327.52323534 112.61279297 338.63037109 C118.79645975 344.76480644 124.97281193 350.90651409 131.14152646 357.05598581 C135.04049532 360.94192286 138.9482767 364.81869791 142.86296797 368.68879247 C145.30614222 371.10836837 147.74077811 373.53639974 150.17317581 375.9668045 C151.29591556 377.08527877 152.42206282 378.20034552 153.55199051 379.31155777 C162.73193834 388.34540136 170.90880526 397.39086675 171.70654297 410.81445312 C171.73628547 412.31942391 171.74881225 413.82481689 171.74560547 415.33007812 C171.74318848 416.5148877 171.74318848 416.5148877 171.74072266 417.72363281 C171.55025742 426.85476026 168.93504201 434.27675517 163.37060547 441.58007812 C162.81373047 442.40507812 162.25685547 443.23007812 161.68310547 444.08007812 C154.3163856 452.0440996 143.69040664 457.04418111 132.94482422 457.73632812 C120.44088095 458.16079013 110.10155743 454.40404818 100.64442825 446.22124767 C93.67791065 439.79257901 86.87694537 433.2257106 80.18603516 426.5090332 C79.13030666 425.4530216 78.07435588 424.39723219 77.01820374 423.34164429 C74.19238254 420.51610626 71.36962278 417.68752867 68.54746532 414.85833192 C65.58247515 411.88702704 62.61459178 408.91861469 59.64703369 405.94987488 C54.04615309 400.34590463 48.44782314 394.73939367 42.85043931 389.13193101 C36.47018085 382.7404373 30.08703197 376.35183352 23.70365667 369.96345294 C10.58945489 356.83884045 -2.52117119 343.71066146 -15.62939453 330.58007812 C-17.8529844 331.84147786 -20.07546482 333.10476764 -22.29736328 334.36914062 C-22.92058472 334.72242432 -23.54380615 335.07570801 -24.18591309 335.43969727 C-27.8362826 337.51912769 -31.40708518 339.68226059 -34.94189453 341.95507812 C-51.02672729 351.32717401 -69.61170745 357.20511565 -87.62939453 361.58007812 C-88.31195313 361.74588379 -88.99451172 361.91168945 -89.69775391 362.08251953 C-138.47884447 373.47048225 -193.09663945 364.83159051 -236.42724609 339.97509766 C-242.32117544 336.405819 -248.01688704 332.57507431 -253.62939453 328.58007812 C-254.25910156 328.13277344 -254.88880859 327.68546875 -255.53759766 327.22460938 C-263.60463535 321.41777161 -270.96905459 314.87585094 -278.13769531 308.00878906 C-279.5110495 306.69342594 -280.89587693 305.39006963 -282.28173828 304.08789062 C-289.14250592 297.47640838 -294.96278546 290.2139948 -300.62939453 282.58007812 C-301.23098389 281.76966064 -301.23098389 281.76966064 -301.84472656 280.94287109 C-308.22220088 272.25312744 -313.6239528 263.11210163 -318.62939453 253.58007812 C-318.97357422 252.92587891 -319.31775391 252.27167969 -319.67236328 251.59765625 C-332.36569933 227.0620699 -340.59705928 198.42658704 -340.86767578 170.70898438 C-340.87746964 169.87776062 -340.88726349 169.04653687 -340.89735413 168.19012451 C-341.07099513 149.61928913 -340.86848619 131.75913559 -336.62939453 113.58007812 C-336.41508789 112.63729004 -336.20078125 111.69450195 -335.97998047 110.72314453 C-332.8730328 97.41573041 -328.39279282 84.956536 -322.62939453 72.58007812 C-322.30712891 71.88188965 -321.98486328 71.18370117 -321.65283203 70.46435547 C-312.94551114 51.79759386 -301.68037224 34.99455922 -287.71533203 19.85351562 C-285.77716903 17.74113572 -283.91916182 15.58009741 -282.06689453 13.39257812 C-278.56293641 9.38462603 -274.70626625 5.99148109 -270.62939453 2.58007812 C-269.75541016 1.81824219 -268.88142578 1.05640625 -267.98095703 0.27148438 C-198.68568558 -59.27043118 -94.84493166 -64.44674306 0 0 Z M-192.62939453 32.58007812 C-193.60263672 33.01964844 -194.57587891 33.45921875 -195.57861328 33.91210938 C-208.71470271 40.14531259 -219.83981909 48.9733171 -230.62939453 58.58007812 C-231.34611328 59.21171875 -232.06283203 59.84335938 -232.80126953 60.49414062 C-254.75728959 81.08925035 -270.20685152 113.66036952 -272.62939453 143.58007812 C-274.62126087 185.00512447 -264.43943968 220.42827507 -237.28564453 252.33398438 C-214.28069648 278.50575281 -180.59142354 295.13727081 -145.93017578 297.98632812 C-105.74948307 300.83051159 -71.23914742 287.85822981 -40.28173828 262.66992188 C-35.57530959 258.68895425 -31.52339587 254.35182567 -27.62939453 249.58007812 C-26.85595703 248.64421875 -26.08251953 247.70835937 -25.28564453 246.74414062 C-1.17290894 216.90774613 8.48789579 179.92252153 5.13916016 141.95605469 C4.56043694 137.06246936 3.5698843 132.35785024 2.37060547 127.58007812 C2.20431641 126.90009766 2.03802734 126.22011719 1.86669922 125.51953125 C-5.89419654 94.44720416 -24.07698579 66.94253851 -49.62939453 47.58007812 C-50.34740234 47.01160156 -51.06541016 46.443125 -51.80517578 45.85742188 C-64.72551763 36.14995366 -80.08213054 28.85830651 -95.62939453 24.58007812 C-96.62712891 24.28746094 -97.62486328 23.99484375 -98.65283203 23.69335938 C-130.04793234 15.06601948 -163.27614662 19.20848913 -192.62939453 32.58007812 Z "
        fill="#FFF" transform="translate(340.62939453125,51.419921875)" />
</svg>